<?xml version="1.0" standalone="no"?>
<!DOCTYPE svg PUBLIC "-//W3C//DTD SVG 20010904//EN"
 "http://www.w3.org/TR/2001/REC-SVG-20010904/DTD/svg10.dtd">
<svg version="1.0" xmlns="http://www.w3.org/2000/svg"
 width="1280.000000pt" height="1130.000000pt" viewBox="0 0 1280.000000 1130.000000"
 preserveAspectRatio="xMidYMid meet">
<metadata>
Created by potrace 1.15, written by Peter Selinger 2001-2017
</metadata>
<g transform="translate(0.000000,1130.000000) scale(0.100000,-0.100000)"
fill="#000000" stroke="none">
<path d="M2645 11289 c-1224 -115 -2154 -916 -2224 -1914 -36 -517 156 -1001
554 -1401 272 -273 558 -451 950 -591 55 -20 101 -37 103 -38 2 -2 -35 -141
-203 -749 -36 -131 -64 -240 -63 -241 2 -2 273 192 603 431 l600 434 70 0 c86
0 300 24 415 45 569 107 1050 357 1415 736 161 167 269 321 360 512 266 562
222 1179 -123 1707 -369 567 -1038 956 -1816 1056 -147 19 -504 26 -641 13z"/>
<path d="M7535 11282 c-106 -37 -176 -120 -195 -232 -8 -46 -10 -577 -8 -1835
l3 -1770 24 -53 c14 -31 43 -70 72 -96 87 -78 65 -76 751 -76 l608 0 0 -29 c0
-25 -91 -881 -104 -981 l-5 -35 27 31 c15 18 220 253 457 523 l430 491 1231 0
1231 0 61 31 c65 32 99 66 135 133 l22 41 3 1815 c3 2040 9 1871 -74 1960 -24
25 -65 57 -91 70 l-48 25 -2240 2 c-2104 2 -2243 1 -2290 -15z"/>
<path d="M0 3953 l1 -1768 940 -415 c517 -228 942 -417 944 -420 2 -3 -170
-293 -382 -645 -211 -352 -391 -653 -400 -670 l-16 -30 34 26 c19 14 383 287
809 606 l775 579 515 77 c1166 174 2173 326 2176 329 2 3 85 770 249 2313 41
385 77 714 79 731 4 29 2 32 -27 37 -18 3 -198 35 -402 72 -589 106 -1242 222
-1480 265 -121 22 -422 76 -670 120 -247 44 -549 98 -670 120 -121 22 -422 76
-670 120 -247 44 -549 98 -670 120 -121 22 -422 75 -668 120 -246 44 -452 80
-458 80 -5 0 -9 -665 -9 -1767z"/>
<path d="M11700 5666 c-118 -30 -384 -95 -590 -145 -206 -50 -541 -131 -745
-181 -203 -50 -536 -131 -740 -180 -331 -80 -852 -207 -1620 -394 -143 -35
-422 -103 -620 -151 -198 -48 -364 -91 -369 -96 -6 -5 5 -112 27 -266 20 -142
68 -484 107 -760 175 -1251 213 -1527 275 -1968 36 -258 67 -471 69 -472 3 -3
493 100 2201 461 l450 96 35 -39 c321 -358 1415 -1560 1417 -1558 1 2 -114
403 -257 892 -143 489 -256 892 -251 895 4 3 391 243 860 534 469 291 850 534
848 540 -2 6 -122 403 -266 881 -143 479 -334 1115 -425 1415 -109 364 -168
546 -177 547 -8 1 -111 -22 -229 -51z"/>
</g>
</svg>
